{"title":"An Unfinished Life 2005 DVD9rip English Klam","uid":11014633,"size":1766319836,"categoryP":"video","categoryS":"movies","magnet":"?xt=urn:btih:96cad44d4083857d4907421d33a60014b9d337fd&amp;dn=An+Unfinished+Life+2005+DVD9rip+English+Klam&amp;tr=udp%3A%2F%2Ftracker.openbittorrent.com%3A80&amp;tr=udp%3A%2F%2Fopen.demonii.com%3A1337&amp;tr=udp%3A%2F%2Ftracker.coppersurfer.tk%3A6969&amp;tr=udp%3A%2F%2Fexodus.desync.com%3A6969","seeders":1,"leechers":0,"uploader":"Klambake","files":-1,"time":1410446882,"description":" &lt;a href=&quot;http://i.imgur.com/AjbtWzS.jpg&quot; rel=&quot;nofollow&quot; target=&quot;_NEW&quot;&gt;http://i.imgur.com/AjbtWzS.jpg&lt;/a&gt;\n\nWith: Jennifer Lopez, Robert Redford and Morgan Freeman\n\nEinar Gilkyson (Robert Redford) is een oude, verbitterde boer die zichzelf en zijn ranch heeft laten verloederen na de dood van zijn zoon, tien jaar geleden. Het enige waar Einar nog tijd en energie in stopt is zijn beste vriend Mitch (Morgan Freeman), die gehandicapt is geraakt na een ontmoeting met een beer. Op een dag staat Jean (Jennifer Lopez), Einar's schoondochter, bij hem op de stoep. De relatie tussen de twee is ernstig verstoord, want Einar geeft Jean de schuld van de dood van zijn zoon. Jean is gevlucht voor haar agressieve vriend. Ze heeft haar dochtertje Griff bij zich, die haar opa nog nooit heeft gezien. Door het contact met zijn kleindochter, die op zoek is naar een vaderfiguur en grote interesse heeft in het ranchleven, krijgt Einar sinds lange tijd weer wat plezier in het leven. Ook zijn houding naar Jean toe verbetert. Maar dan komt haar bezitterige vriend opdagen.\n\nA down on her luck woman, desperate to provide care for her daughter, moves in with her father in-law from whom she is estranged. Through time, they learn to forgive each other and heal old wounds.\n &lt;a href=&quot;\nhttp://www.imdb.com/title/tt0350261&quot; rel=&quot;nofollow&quot; target=&quot;_NEW&quot;&gt;\nhttp://www.imdb.com/title/tt0350261&lt;/a&gt;\t\n\n--------------------- Dutch Friends 4ever ---------------------\n---------------------------------------------------------------\n- Bezoek ook eens mijn vrienden op: &lt;a href=&quot; http://www.Film-Test.nl&quot; rel=&quot;nofollow&quot; target=&quot;_NEW&quot;&gt; http://www.Film-Test.nl&lt;/a&gt; --\n----- voor mijn Nederlandse Sync. ondertitels ---- en meer ----\n------- http://www.Film-Test.nl ---- Over Films en meer -------\n---------------------------------------------------------------\n &lt;a href=&quot;\nhttp://i.imgur.com/Hxicqcj.jpg&quot; rel=&quot;nofollow&quot; target=&quot;_NEW&quot;&gt;\nhttp://i.imgur.com/Hxicqcj.jpg&lt;/a&gt; &lt;a href=&quot;\nhttp://i.imgur.com/OOw60B1.jpg&quot; rel=&quot;nofollow&quot; target=&quot;_NEW&quot;&gt;\nhttp://i.imgur.com/OOw60B1.jpg&lt;/a&gt; &lt;a href=&quot;\nhttp://i.imgur.com/qZBbd0P.jpg&quot; rel=&quot;nofollow&quot; target=&quot;_NEW&quot;&gt;\nhttp://i.imgur.com/qZBbd0P.jpg&lt;/a&gt;\n\nGeneral:\n\nComplete name                            : An Unfinished LifeAn Unfinished Life.avi\nFormat                                   : AVI\nFormat/Info                              : Audio Video Interleave\nFile size                                : 1.64 GiB\nDuration                                 : 1h 43mn\nOverall bit rate                         : 2 280 Kbps\n\nVideo:\n\nFormat                                   : MPEG-4 Visual\nFormat profile                           : Simple@L3\nFormat settings, BVOP                    : No\nFormat settings, QPel                    : No\nFormat settings, GMC                     : No warppoints\nFormat settings, Matrix                  : Default (H.263)\nCodec ID                                 : XVID\nCodec ID/Hint                            : XviD\nDuration                                 : 1h 43mn\nSource duration                          : 1h 43mn\nBit rate                                 : 1 821 Kbps\nWidth                                    : 720 pixels\nHeight                                   : 304 pixels\nDisplay aspect ratio                     : 2.35:1\nFrame rate                               : 25.000 fps\nColor space                              : YUV\nChroma subsampling                       : 4:2:0\nBit depth                                : 8 bits\nScan type                                : Progressive\nCompression mode                         : Lossy\nBits/(Pixel*Frame)                       : 0.333\nStream size                              : 1.31 GiB (80%)\nWriting library                          : XviD 1.1.2 (UTC 2006-11-01)\n\nAudio:\n\nFormat                                   : AC-3\nFormat/Info                              : Audio Coding 3\nMode extension                           : CM (complete main)\nFormat settings, Endianness              : Big\nCodec ID                                 : 2000\nDuration                                 : 1h 43mn\nBit rate mode                            : Constant\nBit rate                                 : 448 Kbps\nChannel(s)                               : 6 channels\nChannel positions                        : Front: L C R, Side: L R, LFE\nSampling rate                            : 48.0 KHz\nBit depth                                : 16 bits\nCompression mode                         : Lossy\nStream size                              : 331 MiB (20%)\nAlignment                                : Aligned on interleaves\nInterleave, duration                     : 32 ms (0.80 video frame)\nInterleave, preload duration             : 544 ms\n\n\n","torrent":{"xt":"urn:btih:96cad44d4083857d4907421d33a60014b9d337fd","amp;dn":"An+Unfinished+Life+2005+DVD9rip+English+Klam","amp;tr":["udp%3A%2F%2Ftracker.openbittorrent.com%3A80","udp%3A%2F%2Fopen.demonii.com%3A1337","udp%3A%2F%2Ftracker.coppersurfer.tk%3A6969","udp%3A%2F%2Fexodus.desync.com%3A6969"],"infoHash":"96cad44d4083857d4907421d33a60014b9d337fd","infoHashBuffer":{"type":"Buffer","data":[150,202,212,77,64,131,133,125,73,7,66,29,51,166,0,20,185,211,55,253]},"announce":[],"urlList":[]}}